<svg width="32" height="32" viewBox="0 0 32 32" fill="none" xmlns="http://www.w3.org/2000/svg">
<path d="M0 0.4C0 0.179086 0.179086 0 0.4 0H31.6C31.8209 0 32 0.179086 32 0.4V31.6C32 31.8209 31.8209 32 31.6 32H0.4C0.179086 32 0 31.8209 0 31.6V0.4Z" fill="#D4D4D4"/>
<path d="M8.09769 23.7316L13.7776 8.13157C13.8064 8.05258 13.8815 8 13.9656 8H18.3798C18.519 8 18.6156 8.13855 18.5675 8.26912L12.8223 23.8691C12.7933 23.9478 12.7184 24 12.6346 24H8.28562C8.1468 24 8.0502 23.862 8.09769 23.7316Z" fill="#262626"/>
<path d="M23.9033 23.7319L22.1159 18.7985C22.0872 18.7194 22.012 18.6667 21.9278 18.6667H19.0824C18.9446 18.6667 18.8481 18.8027 18.8937 18.9328L20.6214 23.8661C20.6495 23.9463 20.7252 24 20.8102 24H23.7153C23.854 24 23.9506 23.8623 23.9033 23.7319Z" fill="#262626"/>
</svg>
