<svg width="178" height="32" viewBox="0 0 178 32" fill="none" xmlns="http://www.w3.org/2000/svg">
<g clip-path="url(#clip0_4104_24202)">
<path fill-rule="evenodd" clip-rule="evenodd" d="M16 0C21.9814 0 24.9723 -0.000163937 27.2 1.28594C28.6594 2.12851 29.8715 3.34062 30.7141 4.8C32.0002 7.02768 32 10.0186 32 16C32 21.9814 32.0002 24.9723 30.7141 27.2C29.8715 28.6594 28.6594 29.8715 27.2 30.7141C24.9723 32.0002 21.9814 32 16 32C10.0186 32 7.02768 32.0002 4.8 30.7141C3.34062 29.8715 2.12851 28.6594 1.28594 27.2C-0.000163937 24.9723 0 21.9814 0 16C0 10.0186 -0.000163937 7.02768 1.28594 4.8C2.12851 3.34062 3.34062 2.12851 4.8 1.28594C7.02768 -0.000163937 10.0186 0 16 0ZM17.6 3.2C10.5307 3.2 4.8 8.93072 4.8 16C4.8 23.0693 10.5307 28.8 17.6 28.8C24.6693 28.8 30.4 23.0693 30.4 16C30.4 8.93072 24.6693 3.2 17.6 3.2Z" fill="#FF4D00"/>
<path d="M28.7998 16C28.7998 20.4182 25.218 24 20.7998 24C16.3816 24 12.7998 20.4182 12.7998 16C12.7998 11.5818 16.3816 8 20.7998 8C25.218 8 28.7998 11.5818 28.7998 16Z" fill="#FF4D00"/>
<path d="M171.628 9.00684C173.417 9.00684 174.855 9.55612 175.942 10.6548C177.047 11.7359 177.6 13.2531 177.6 15.2061V23.7073H173.917V15.7032C173.917 14.5696 173.627 13.7064 173.049 13.1136C172.47 12.5032 171.68 12.198 170.681 12.198C169.681 12.198 168.882 12.5032 168.286 13.1136C167.707 13.7064 167.418 14.5696 167.418 15.7032V23.7073H163.734V15.7032C163.734 14.5696 163.446 13.7064 162.866 13.1136C162.288 12.5032 161.498 12.198 160.498 12.198C159.482 12.198 158.674 12.5032 158.078 13.1136C157.499 13.7064 157.21 14.5696 157.21 15.7032V23.7073H153.526V9.21612H157.21V10.9686C157.683 10.3583 158.289 9.87876 159.026 9.52996C159.779 9.18124 160.604 9.00684 161.498 9.00684C162.638 9.00684 163.656 9.251 164.55 9.73924C165.445 10.21 166.138 10.8901 166.629 11.7795C167.102 10.9424 167.786 10.2711 168.681 9.7654C169.593 9.25964 170.575 9.00684 171.628 9.00684Z" fill="#391300"/>
<path d="M150.813 9.21631V23.7076H147.103V21.8765C146.63 22.5043 146.007 23.0013 145.235 23.3675C144.482 23.7163 143.657 23.8906 142.763 23.8906C141.623 23.8906 140.614 23.6553 139.737 23.1844C138.86 22.6962 138.167 21.9899 137.659 21.0657C137.167 20.124 136.922 19.0079 136.922 17.7175V9.21631H140.605V17.1944C140.605 18.3453 140.895 19.2346 141.473 19.8624C142.052 20.4728 142.842 20.7779 143.841 20.7779C144.859 20.7779 145.657 20.4728 146.235 19.8624C146.815 19.2346 147.103 18.3453 147.103 17.1944V9.21631H150.813Z" fill="#391300"/>
<path d="M129.215 23.943C128.022 23.943 126.952 23.7338 126.004 23.3152C125.057 22.8793 124.304 22.295 123.742 21.5626C123.198 20.8302 122.9 20.0194 122.848 19.13H126.557C126.628 19.6881 126.9 20.1502 127.372 20.5164C127.864 20.8826 128.469 21.0657 129.188 21.0657C129.89 21.0657 130.433 20.9262 130.82 20.6472C131.223 20.3682 131.424 20.0106 131.424 19.5747C131.424 19.1038 131.179 18.7551 130.688 18.5284C130.214 18.2842 129.452 18.0227 128.399 17.7437C127.312 17.4821 126.417 17.2118 125.716 16.9328C125.032 16.6538 124.435 16.2266 123.926 15.6511C123.435 15.0756 123.189 14.2996 123.189 13.3231C123.189 12.5209 123.417 11.7885 123.874 11.1258C124.347 10.4632 125.014 9.94008 125.873 9.5564C126.75 9.1728 127.776 8.98096 128.952 8.98096C130.688 8.98096 132.073 9.41688 133.108 10.2888C134.143 11.1433 134.713 12.303 134.819 13.7678H131.293C131.24 13.1923 130.995 12.7389 130.556 12.4076C130.136 12.0588 129.565 11.8844 128.846 11.8844C128.18 11.8844 127.662 12.0065 127.294 12.2506C126.943 12.4948 126.768 12.8348 126.768 13.2708C126.768 13.759 127.013 14.134 127.504 14.3955C127.996 14.6397 128.759 14.8926 129.793 15.1541C130.846 15.4157 131.714 15.686 132.398 15.965C133.082 16.244 133.67 16.6799 134.16 17.2729C134.669 17.8483 134.932 18.6156 134.95 19.5747C134.95 20.4118 134.713 21.1616 134.24 21.8242C133.784 22.4869 133.117 23.0101 132.24 23.3937C131.38 23.7599 130.372 23.943 129.215 23.943Z" fill="#391300"/>
<path d="M110.411 11.309C110.884 10.6463 111.533 10.097 112.358 9.66104C113.2 9.20768 114.156 8.98096 115.225 8.98096C116.471 8.98096 117.593 9.28608 118.593 9.89648C119.61 10.5068 120.408 11.3787 120.988 12.5122C121.584 13.6282 121.882 14.9274 121.882 16.4097C121.882 17.8919 121.584 19.2085 120.988 20.3594C120.408 21.4929 119.61 22.3735 118.593 23.0014C117.593 23.6291 116.471 23.943 115.225 23.943C114.156 23.943 113.208 23.725 112.384 23.289C111.577 22.8531 110.92 22.3038 110.411 21.6411V30.6131H106.728V9.2164H110.411V11.309ZM118.12 16.4097C118.12 15.5378 117.936 14.7879 117.567 14.1601C117.216 13.5149 116.743 13.0266 116.146 12.6953C115.568 12.364 114.936 12.1983 114.252 12.1983C113.585 12.1983 112.954 12.3727 112.358 12.7214C111.779 13.0528 111.305 13.541 110.937 14.1862C110.586 14.8315 110.411 15.5901 110.411 16.462C110.411 17.3339 110.586 18.0925 110.937 18.7377C111.305 19.3829 111.779 19.8798 112.358 20.2286C112.954 20.56 113.585 20.7256 114.252 20.7256C114.936 20.7256 115.568 20.5513 116.146 20.2025C116.743 19.8537 117.216 19.3567 117.567 18.7115C117.936 18.0663 118.12 17.299 118.12 16.4097Z" fill="#391300"/>
<path d="M102.194 7.49001C101.544 7.49001 101.001 7.28948 100.563 6.8884C100.141 6.46988 99.9305 5.95544 99.9305 5.34511C99.9305 4.73476 100.141 4.22905 100.563 3.82797C101.001 3.40945 101.544 3.2002 102.194 3.2002C102.843 3.2002 103.378 3.40945 103.799 3.82797C104.237 4.22905 104.456 4.73476 104.456 5.34511C104.456 5.95544 104.237 6.46988 103.799 6.8884C103.378 7.28948 102.843 7.49001 102.194 7.49001ZM104.009 9.21644V23.7076H100.326V9.21644H104.009Z" fill="#391300"/>
<path d="M90.9407 23.943C89.5375 23.943 88.2743 23.6378 87.1519 23.0275C86.0295 22.3997 85.1439 21.519 84.4943 20.3856C83.8631 19.2521 83.5479 17.9442 83.5479 16.462C83.5479 14.9797 83.8719 13.6718 84.5207 12.5383C85.1879 11.4049 86.0911 10.533 87.2311 9.92264C88.3711 9.2948 89.6423 8.98096 91.0455 8.98096C92.4487 8.98096 93.7207 9.2948 94.8607 9.92264C96.0007 10.533 96.8951 11.4049 97.5447 12.5383C98.2111 13.6718 98.5439 14.9797 98.5439 16.462C98.5439 17.9442 98.2023 19.2521 97.5183 20.3856C96.8519 21.519 95.9391 22.3997 94.7815 23.0275C93.6415 23.6378 92.3615 23.943 90.9407 23.943ZM90.9407 20.7518C91.6071 20.7518 92.2295 20.5949 92.8087 20.281C93.4047 19.9496 93.8783 19.4614 94.2295 18.8162C94.5799 18.171 94.7559 17.3862 94.7559 16.462C94.7559 15.0843 94.3871 14.0294 93.6503 13.297C92.9311 12.547 92.0455 12.1722 90.9935 12.1722C89.9407 12.1722 89.0551 12.547 88.3359 13.297C87.6343 14.0294 87.2839 15.0843 87.2839 16.462C87.2839 17.8396 87.6255 18.9034 88.3095 19.6532C89.0111 20.3856 89.8879 20.7518 90.9407 20.7518Z" fill="#391300"/>
<path d="M75.0835 23.943C73.6803 23.943 72.4174 23.6378 71.2948 23.0275C70.1724 22.3997 69.2866 21.519 68.6375 20.3856C68.0061 19.2521 67.6904 17.9442 67.6904 16.462C67.6904 14.9797 68.0149 13.6718 68.6639 12.5383C69.3304 11.4049 70.2337 10.533 71.3738 9.92264C72.5139 9.2948 73.7856 8.98096 75.1888 8.98096C76.5919 8.98096 77.8635 9.2948 79.0036 9.92264C80.1435 10.533 81.0379 11.4049 81.6875 12.5383C82.3539 13.6718 82.6867 14.9797 82.6867 16.462C82.6867 17.9442 82.3452 19.2521 81.6612 20.3856C80.9948 21.519 80.082 22.3997 78.9247 23.0275C77.7846 23.6378 76.5042 23.943 75.0835 23.943ZM75.0835 20.7518C75.7499 20.7518 76.3727 20.5949 76.9515 20.281C77.5478 19.9496 78.0214 19.4614 78.3722 18.8162C78.723 18.171 78.8984 17.3862 78.8984 16.462C78.8984 15.0843 78.53 14.0294 77.7934 13.297C77.0743 12.547 76.1885 12.1722 75.1361 12.1722C74.0837 12.1722 73.1979 12.547 72.4788 13.297C71.7772 14.0294 71.4264 15.0843 71.4264 16.462C71.4264 17.8396 71.7684 18.9034 72.4525 19.6532C73.1541 20.3856 74.0311 20.7518 75.0835 20.7518Z" fill="#391300"/>
<path d="M59.227 23.943C57.8239 23.943 56.561 23.6378 55.4385 23.0275C54.3159 22.3997 53.4301 21.519 52.7812 20.3856C52.1497 19.2521 51.834 17.9442 51.834 16.462C51.834 14.9797 52.1585 13.6718 52.8075 12.5383C53.474 11.4049 54.3773 10.533 55.5173 9.92264C56.6575 9.2948 57.9291 8.98096 59.3323 8.98096C60.7355 8.98096 62.0071 9.2948 63.1472 9.92264C64.2873 10.533 65.1818 11.4049 65.8308 12.5383C66.4973 13.6718 66.8306 14.9797 66.8306 16.462C66.8306 17.9442 66.4885 19.2521 65.8045 20.3856C65.138 21.519 64.2259 22.3997 63.0683 23.0275C61.9282 23.6378 60.6478 23.943 59.227 23.943ZM59.227 20.7518C59.8936 20.7518 60.5162 20.5949 61.095 20.281C61.6914 19.9496 62.165 19.4614 62.5157 18.8162C62.8665 18.171 63.042 17.3862 63.042 16.462C63.042 15.0843 62.6737 14.0294 61.9369 13.297C61.2178 12.547 60.3321 12.1722 59.2797 12.1722C58.2273 12.1722 57.3415 12.547 56.6224 13.297C55.9208 14.0294 55.57 15.0843 55.57 16.462C55.57 17.8396 55.9121 18.9034 56.5961 19.6532C57.2977 20.3856 58.1747 20.7518 59.227 20.7518Z" fill="#391300"/>
<path d="M45.283 20.8041H51.3342V23.7075H41.5996V5.44971H45.283V20.8041Z" fill="#391300"/>
<path d="M78.6596 24.5515C78.9564 24.4325 79.2468 24.2971 79.5307 24.1451L79.5368 24.1419C80.7897 23.4624 81.8057 22.5239 82.5705 21.3403V24.2161C82.4889 28.0871 79.3197 31.1999 75.4225 31.1999H75.0304C71.1332 31.1999 67.9643 28.0871 67.8827 24.2161H71.7605C71.8406 25.9498 73.274 27.3307 75.0304 27.3307H75.4225C77.064 27.3307 78.4234 26.1245 78.6596 24.5515Z" fill="#391300"/>
</g>
<defs>
<clipPath id="clip0_4104_24202">
<rect width="177.6" height="32" fill="white"/>
</clipPath>
</defs>
</svg>
